# xmcd
#
# Track frame offsets:
#	150
#	18524
#	39181
#	64504
#	83253
#	102402
#	130484
#	149706
#
# Disc length: 2485 seconds
# Revision: 0
# Processed by: cddbd v1.5.2PL0 Copyright (c) Steve Scherf et al.
# Submitted via: dBpowerAMP V12.0
#
DISCID=6409b308
DTITLE=Generation Blues Experience - Private Angel
DYEAR=2014
DGENRE=Blues
TTITLE0=Little Mama
TTITLE1=Private Angel
TTITLE2=Crazy
TTITLE3=Rainin'
TTITLE4=Katrina
TTITLE5=Sugar Momma
TTITLE6=Put Love On Your Guest List
TTITLE7=Ain't No Sunshine
EXTD=
EXTT0=
EXTT1=
EXTT2=
EXTT3=
EXTT4=
EXTT5=
EXTT6=
EXTT7=
PLAYORDER=
